<?xml version="1.0" encoding="UTF-8" standalone="no" ?>
<!DOCTYPE svg PUBLIC "-//W3C//DTD SVG 1.1//EN" "http://www.w3.org/Graphics/SVG/1.1/DTD/svg11.dtd">
<svg xmlns="http://www.w3.org/2000/svg" xmlns:xlink="http://www.w3.org/1999/xlink" version="1.1" width="1080" height="1080" viewBox="0 0 1080 1080" xml:space="preserve">
<desc>Created with Fabric.js 5.2.4</desc>
<defs>
</defs>
<g transform="matrix(1 0 0 1 540 540)" id="968cdf87-560f-4dde-b7a7-f16c3f4a18df"  >
<rect style="stroke: none; stroke-width: 1; stroke-dasharray: none; stroke-linecap: butt; stroke-dashoffset: 0; stroke-linejoin: miter; stroke-miterlimit: 4; fill: rgb(255,255,255); fill-rule: nonzero; opacity: 1; visibility: hidden;" vector-effect="non-scaling-stroke"  x="-540" y="-540" rx="0" ry="0" width="1080" height="1080" />
</g>
<g transform="matrix(1 0 0 1 540 540)" id="313b9cc0-5316-408f-8b5e-50866793cf1f"  >
</g>
<g transform="matrix(2.12 0 0 2.12 378.38 574.01)"  >
<path style="stroke: none; stroke-width: 1; stroke-dasharray: none; stroke-linecap: butt; stroke-dashoffset: 0; stroke-linejoin: miter; stroke-miterlimit: 4; fill: rgb(111,220,191); fill-rule: nonzero; opacity: 1;" vector-effect="non-scaling-stroke"  transform=" translate(-68.79, -248.2)" d="M 68.68 267.43 L 78.30000000000001 232.92000000000002 C 78.42822422540513 232.53320525941103 78.38155966991147 232.10973845028923 78.17218811530519 231.76014557929525 C 77.96281656069893 231.4105527083013 77.61151839457592 231.1695313033476 77.21000000000001 231.10000000000002 L 70.77000000000001 229.10000000000002 C 70.39832044833206 228.93388478805423 69.97250029704945 228.93906373736243 69.60497077384753 229.11416942642722 C 69.2374412506456 229.289275115492 68.96515317366018 229.61670270425915 68.86000000000001 230.01000000000002 L 59.240000000000016 264.53000000000003 C 59.159172645846965 264.7563482028949 59.274931464311045 265.0056748888175 59.500000000000014 265.09000000000003 C 59.6114212846063 265.1170069199159 59.72901407177144 265.09840035940334 59.82665466940481 265.0383138377828 C 59.92429526703819 264.9782273161623 59.993897873213946 264.881636711542 60.02000000000002 264.77000000000004 L 60.140000000000015 264.40000000000003 L 68.00000000000001 266.83000000000004" stroke-linecap="round" />
</g>
<g transform="matrix(2.12 0 0 2.12 374.33 573.64)"  >
<path style="stroke: none; stroke-width: 1; stroke-dasharray: none; stroke-linecap: butt; stroke-dashoffset: 0; stroke-linejoin: miter; stroke-miterlimit: 4; fill: rgb(210,216,219); fill-rule: nonzero; opacity: 1;" vector-effect="non-scaling-stroke"  transform=" translate(-66.88, -248.03)" d="M 71 230.48 C 70.26874092666691 230.30386344084022 69.53222783306623 230.75023501271943 69.35 231.48 L 60.209999999999994 264.43 L 63.99999999999999 265.62 L 73.55999999999999 231.29000000000002 z" stroke-linecap="round" />
</g>
<g transform="matrix(2.12 0 0 2.12 382.23 575.82)"  >
<path style="stroke: none; stroke-width: 1; stroke-dasharray: none; stroke-linecap: butt; stroke-dashoffset: 0; stroke-linejoin: miter; stroke-miterlimit: 4; fill: rgb(226,230,232); fill-rule: nonzero; opacity: 1;" vector-effect="non-scaling-stroke"  transform=" translate(-70.61, -249.06)" d="M 68 266.83 L 77.13 233.88 C 77.3874850919774 233.17335166024077 77.03171154933797 232.39064986643405 76.33 232.12 L 73.59 231.29 L 64 265.62 L 68 266.83" stroke-linecap="round" />
</g>
<g transform="matrix(2.12 0 0 2.12 386.29 555.06)"  >
<path style="stroke: none; stroke-width: 1; stroke-dasharray: none; stroke-linecap: butt; stroke-dashoffset: 0; stroke-linejoin: miter; stroke-miterlimit: 4; fill: rgb(163,174,178); fill-rule: nonzero; opacity: 1;" vector-effect="non-scaling-stroke"  transform=" translate(-72.53, -239.27)" d="M 70.43 246.27 C 70.43 246.27 72.52000000000001 236.35000000000002 74.63000000000001 232.27 C 74.08000000000001 234.81 74.00000000000001 236 70.43 246.27 z" stroke-linecap="round" />
</g>
<g transform="matrix(2.12 0 0 2.12 390.73 551.83)"  >
<polygon style="stroke: none; stroke-width: 1; stroke-dasharray: none; stroke-linecap: butt; stroke-dashoffset: 0; stroke-linejoin: miter; stroke-miterlimit: 4; fill: rgb(175,145,219); fill-rule: nonzero; opacity: 1;" vector-effect="non-scaling-stroke"  points="-2.09,1.22 0.95,2.16 0.73,0.23 2.09,-1.19 -1.06,-2.16 -2.09,1.22 " />
</g>
<g transform="matrix(2.12 0 0 2.12 433.26 562.75)"  >
<polyline style="stroke: none; stroke-width: 1; stroke-dasharray: none; stroke-linecap: butt; stroke-dashoffset: 0; stroke-linejoin: miter; stroke-miterlimit: 4; fill: rgb(163,217,232); fill-rule: nonzero; opacity: 1;" vector-effect="non-scaling-stroke"  points="-5.6,24.88 -5.6,-24.88 5.61,-24.88 5.61,24.88 " />
</g>
<g transform="matrix(2.12 0 0 2.12 433.28 525.3)"  >
<rect style="stroke: none; stroke-width: 1; stroke-dasharray: none; stroke-linecap: butt; stroke-dashoffset: 0; stroke-linejoin: miter; stroke-miterlimit: 4; fill: rgb(111,220,191); fill-rule: nonzero; opacity: 1;" vector-effect="non-scaling-stroke"  x="-5.6" y="-0.895" rx="0" ry="0" width="11.2" height="1.79" />
</g>
<g transform="matrix(2.12 0 0 2.12 433.28 530.81)"  >
<rect style="stroke: none; stroke-width: 1; stroke-dasharray: none; stroke-linecap: butt; stroke-dashoffset: 0; stroke-linejoin: miter; stroke-miterlimit: 4; fill: rgb(111,220,191); fill-rule: nonzero; opacity: 1;" vector-effect="non-scaling-stroke"  x="-5.6" y="-0.895" rx="0" ry="0" width="11.2" height="1.79" />
</g>
<g transform="matrix(2.12 0 0 2.12 409.92 567.36)"  >
<polyline style="stroke: none; stroke-width: 1; stroke-dasharray: none; stroke-linecap: butt; stroke-dashoffset: 0; stroke-linejoin: miter; stroke-miterlimit: 4; fill: rgb(221,133,156); fill-rule: nonzero; opacity: 1;" vector-effect="non-scaling-stroke"  points="-5.3,22.7 -5.3,-22.7 5.3,-22.7 5.3,22.7 " />
</g>
<g transform="matrix(2.12 0 0 2.12 409.92 541.98)"  >
<rect style="stroke: none; stroke-width: 1; stroke-dasharray: none; stroke-linecap: butt; stroke-dashoffset: 0; stroke-linejoin: miter; stroke-miterlimit: 4; fill: rgb(255,255,255); fill-rule: nonzero; opacity: 0.54;" vector-effect="non-scaling-stroke"  x="-5.295" y="-0.81" rx="0" ry="0" width="10.59" height="1.62" />
</g>
<g transform="matrix(2.12 0 0 2.12 409.92 546.96)"  >
<rect style="stroke: none; stroke-width: 1; stroke-dasharray: none; stroke-linecap: butt; stroke-dashoffset: 0; stroke-linejoin: miter; stroke-miterlimit: 4; fill: rgb(255,255,255); fill-rule: nonzero; opacity: 0.54;" vector-effect="non-scaling-stroke"  x="-5.295" y="-0.81" rx="0" ry="0" width="10.59" height="1.62" />
</g>
<g transform="matrix(2.12 0 0 2.12 836.6 847.88)"  >
<path style="stroke: none; stroke-width: 1; stroke-dasharray: none; stroke-linecap: butt; stroke-dashoffset: 0; stroke-linejoin: miter; stroke-miterlimit: 4; fill: rgb(186,188,190); fill-rule: evenodd; opacity: 1;" vector-effect="non-scaling-stroke"  transform=" translate(-285.02, -377.45)" d="M 292.27 379.94 L 277.78 379.94 C 275.88 373.39 294.11999999999995 373.21 292.27 379.94 z" stroke-linecap="round" />
</g>
<g transform="matrix(2.12 0 0 2.12 836.59 847.23)"  >
<path style="stroke: none; stroke-width: 1; stroke-dasharray: none; stroke-linecap: butt; stroke-dashoffset: 0; stroke-linejoin: miter; stroke-miterlimit: 4; fill: rgb(229,230,231); fill-rule: evenodd; opacity: 1;" vector-effect="non-scaling-stroke"  transform=" translate(-285.02, -377.14)" d="M 277.81 378 C 279.27 373.89 290.68 373.64 292.23 378 C 287.6204940226984 379.94698301332915 282.41950597730164 379.94698301332915 277.81 378 z" stroke-linecap="round" />
</g>
<g transform="matrix(2.12 0 0 2.12 836.58 842.35)"  >
<path style="stroke: none; stroke-width: 1; stroke-dasharray: none; stroke-linecap: butt; stroke-dashoffset: 0; stroke-linejoin: miter; stroke-miterlimit: 4; fill: rgb(66,66,67); fill-rule: evenodd; opacity: 1;" vector-effect="non-scaling-stroke"  transform=" translate(-285.02, -374.84)" d="M 285.72 375.08 C 285.72 375.1297056274847 285.6797056274848 375.16999999999996 285.63000000000005 375.16999999999996 L 284.41 375.16999999999996 C 284.3602943725153 375.16999999999996 284.32000000000005 375.1297056274847 284.32000000000005 375.08 L 284.32000000000005 374.71 C 284.32000000000005 374.59999999999997 284.58000000000004 374.51 284.89000000000004 374.51 L 285.15000000000003 374.51 C 285.46000000000004 374.51 285.72 374.59999999999997 285.72 374.71 z" stroke-linecap="round" />
</g>
<g transform="matrix(2.12 0 0 2.12 836.59 853.93)"  >
<rect style="stroke: none; stroke-width: 1; stroke-dasharray: none; stroke-linecap: butt; stroke-dashoffset: 0; stroke-linejoin: miter; stroke-miterlimit: 4; fill: rgb(178,178,216); fill-rule: nonzero; opacity: 1;" vector-effect="non-scaling-stroke"  x="-12.76" y="-0.405" rx="0.3" ry="0.3" width="25.52" height="0.81" />
</g>
<g transform="matrix(2.12 0 0 2.12 359.94 617.9)" id="shelf"  >
<rect style="stroke: none; stroke-width: 1; stroke-dasharray: none; stroke-linecap: butt; stroke-dashoffset: 0; stroke-linejoin: miter; stroke-miterlimit: 4; fill: rgb(64,64,64); fill-rule: nonzero; opacity: 1;" vector-effect="non-scaling-stroke"  x="-49.915" y="-2.115" rx="0" ry="0" width="99.83" height="4.23" />
</g>
<g transform="matrix(2.12 0 0 2.12 591.42 306.28)"  >
<path style="stroke: none; stroke-width: 1; stroke-dasharray: none; stroke-linecap: butt; stroke-dashoffset: 0; stroke-linejoin: miter; stroke-miterlimit: 4; fill: rgb(255,249,204); fill-rule: nonzero; opacity: 1;" vector-effect="non-scaling-stroke"  transform=" translate(-169.32, -121.87)" d="M 181.07 121.86 C 181.07 128.97 175.81 134.74 169.32 134.74 C 162.82999999999998 134.74 157.57999999999998 128.97 157.57999999999998 121.86000000000001 C 157.57999999999998 114.75000000000003 162.84 109 169.32 109 C 175.79999999999998 109 181.07 114.74 181.07 121.86 z" stroke-linecap="round" />
</g>
<g transform="matrix(2.12 0 0 2.12 591.42 99.61)"  >
<rect style="stroke: none; stroke-width: 1; stroke-dasharray: none; stroke-linecap: butt; stroke-dashoffset: 0; stroke-linejoin: miter; stroke-miterlimit: 4; fill: rgb(175,145,219); fill-rule: nonzero; opacity: 1;" vector-effect="non-scaling-stroke"  x="-1.07" y="-45.54" rx="0" ry="0" width="2.14" height="91.08" />
</g>
<g transform="matrix(2.12 0 0 2.12 591.41 195.7)"  >
<path style="stroke: none; stroke-width: 1; stroke-dasharray: none; stroke-linecap: butt; stroke-dashoffset: 0; stroke-linejoin: miter; stroke-miterlimit: 4; fill: rgb(178,178,216); fill-rule: nonzero; opacity: 1;" vector-effect="non-scaling-stroke"  transform=" translate(-169.32, -69.69)" d="M 172.27 72.32 L 172.27 69.52999999999999 C 172.32082587450637 68.22269899257773 171.30693587642074 67.11947947924227 170 67.05999999999999 L 168.63 67.05999999999999 C 167.3270308753675 67.12478207412262 166.3190577469632 68.2264164224229 166.37 69.52999999999999 L 166.37 72.32 C 168.25725058193436 71.54701668345731 170.37274941806564 71.54701668345731 172.26 72.32 z" stroke-linecap="round" />
</g>
<g transform="matrix(2.12 0 0 2.12 591.43 219.4)"  >
<path style="stroke: none; stroke-width: 1; stroke-dasharray: none; stroke-linecap: butt; stroke-dashoffset: 0; stroke-linejoin: miter; stroke-miterlimit: 4; fill: rgb(175,145,219); fill-rule: nonzero; opacity: 1;" vector-effect="non-scaling-stroke"  transform=" translate(-169.33, -80.87)" d="M 178 81.25 L 178 90 L 177.64 89.92 C 172.5911301261974 89.13700967581536 167.4568102247925 89.07304109999458 162.39 89.73 L 161.02999999999997 89.92 L 160.65999999999997 90 L 160.65999999999997 81.25 C 160.6627343551616 80.77832924308613 160.69613816850782 80.30733547490462 160.75999999999996 79.84 C 160.82789921884054 79.3390750314597 160.934892462813 78.84423127808704 161.07999999999996 78.36 C 161.07999999999996 78.3 161.07999999999996 78.24 161.12999999999997 78.17999999999999 C 161.20455124177627 77.94234391112607 161.29133362298455 77.70869903864224 161.38999999999996 77.47999999999999 C 161.384256258422 77.4402061910457 161.384256258422 77.39979380895427 161.38999999999996 77.35999999999999 L 161.56999999999996 76.94999999999999 C 161.63999999999996 76.79999999999998 161.70999999999995 76.64999999999999 161.78999999999996 76.50999999999999 C 162.07852614674388 75.97838678419089 162.41314271171711 75.47311577108132 162.78999999999996 74.99999999999999 C 163.21537590095625 74.47466291009565 163.69466291009562 73.99537590095628 164.21999999999997 73.56999999999998 C 164.37999999999997 73.44999999999997 164.53999999999996 73.31999999999998 164.71999999999997 73.20999999999998 C 164.8924686888446 73.08512407453205 165.07284644138386 72.97155289700731 165.25999999999996 72.86999999999998 C 165.4377659150511 72.75708599892249 165.62135333860013 72.65360945110395 165.80999999999997 72.55999999999997 L 166.36999999999998 72.31999999999998 C 167.29996680605834 71.9389999793267 168.29501484424503 71.7420280127232 169.29999999999998 71.73999999999998 C 170.32828845563373 71.73548594084355 171.34749465121843 71.93253247198992 172.29999999999998 72.31999999999998 C 174.89073492683565 73.40498880658419 176.84305547156364 75.61516300816304 177.6 78.31999999999998 C 177.87495440147066 79.27205071467226 178.00970353711975 80.25908813330172 178 81.24999999999999 z" stroke-linecap="round" />
</g>
<g transform="matrix(2.12 0 0 2.12 591.46 271.74)"  >
<path style="stroke: none; stroke-width: 1; stroke-dasharray: none; stroke-linecap: butt; stroke-dashoffset: 0; stroke-linejoin: miter; stroke-miterlimit: 4; fill: rgb(175,145,219); fill-rule: nonzero; opacity: 1;" vector-effect="non-scaling-stroke"  transform=" translate(-169.33, -105.57)" d="M 195.67 121.86 L 143 121.86 L 144.58 109.19 C 145.58 101.25999999999999 152.69 91.71 160.68 89.99 L 161.05 89.91 L 162.48000000000002 89.71 C 167.5247283882004 89.07127972997209 172.63385035593848 89.1385935898896 177.66000000000003 89.91 L 178.00000000000003 90 C 186.00000000000003 91.72 193.14000000000004 101.27 194.11 109.2 z" stroke-linecap="round" />
</g>
<g transform="matrix(2.12 0 0 2.12 591.42 226.41)"  >
<path style="stroke: none; stroke-width: 1; stroke-dasharray: none; stroke-linecap: butt; stroke-dashoffset: 0; stroke-linejoin: miter; stroke-miterlimit: 4; fill: rgb(178,178,216); fill-rule: nonzero; opacity: 1;" vector-effect="non-scaling-stroke"  transform=" translate(-169.32, -84.18)" d="M 178 81.25 L 160.65 81.25 C 160.65273435516164 80.77832924308613 160.68613816850785 80.30733547490462 160.75 79.84 C 160.81789921884058 79.3390750314597 160.92489246281303 78.84423127808704 161.07 78.36 L 177.57 78.36 C 177.85128013956464 79.29770614279654 177.99609889991166 80.27102292745438 178 81.25 z M 178 87.2 L 178 90 L 177.64 89.92 C 172.5911301261974 89.13700967581536 167.4568102247925 89.07304109999458 162.39 89.73 L 161.02999999999997 89.92 L 160.65999999999997 90 L 160.65999999999997 87.33 C 163.65999999999997 87.03 166.82999999999996 86.87 170.03999999999996 86.87 C 172.73999999999995 86.87 175.39999999999998 87 177.99999999999997 87.2 z" stroke-linecap="round" />
</g>
<g transform="matrix(2.12 0 0 2.12 591.44 306)"  >
<polygon style="stroke: none; stroke-width: 1; stroke-dasharray: none; stroke-linecap: butt; stroke-dashoffset: 0; stroke-linejoin: miter; stroke-miterlimit: 4; fill: rgb(178,178,216); fill-rule: nonzero; opacity: 1;" vector-effect="non-scaling-stroke"  points="26.34,-1.88 -26.34,-1.88 -28.38,-1.88 -28.38,1.88 28.39,1.88 28.39,-1.88 26.34,-1.88 " />
</g>
<g transform="matrix(2.12 0 0 2.12 611.68 864.51)" id="desk"  >
<rect style="stroke: none; stroke-width: 1; stroke-dasharray: none; stroke-linecap: butt; stroke-dashoffset: 0; stroke-linejoin: miter; stroke-miterlimit: 4; fill: rgb(64,64,64); fill-rule: nonzero; opacity: 1;" vector-effect="non-scaling-stroke"  x="-141" y="-5" rx="5" ry="5" width="282" height="10" />
</g>
<g transform="matrix(2.12 0 0 2.12 418.8 824.4)"  >
<path style="stroke: none; stroke-width: 1; stroke-dasharray: none; stroke-linecap: butt; stroke-dashoffset: 0; stroke-linejoin: miter; stroke-miterlimit: 4; fill: rgb(204,125,150); fill-rule: nonzero; opacity: 1;" vector-effect="non-scaling-stroke"  transform=" translate(-87.87, -366.37)" d="M 90.8 362 C 90.79999996275828 362.4804877060189 90.41048770601891 362.8699999325679 89.93 362.8699999325679 C 89.44951229398109 362.8699999325679 89.06000003724172 362.4804877060189 89.06 362 C 89.03633419625956 361.68712701806095 88.94415758273965 361.3832855883101 88.79 361.11 C 88.57096236126712 360.6782485600592 88.26041600471814 360.29945025701596 87.88000000000001 360 C 87.55064716585369 359.7364049448496 87.14184354803884 359.5919140109667 86.72000000000001 359.59 C 86.46860224490212 359.60527061765123 86.22325684799858 359.67342211679113 86.00000000000001 359.78999999999996 L 85.84000000000002 359.87999999999994 C 85.2838468181709 360.24127011705895 84.91734703826174 360.83133476271274 84.84000000000002 361.48999999999995 C 84.73897791345142 362.44486928190446 84.94195511920849 363.40726120575266 85.42000000000002 364.23999999999995 C 85.50000000000001 364.4 85.60000000000002 364.5799999999999 85.71000000000002 364.75999999999993 C 86.4928400589882 365.86259013673305 87.40239665875748 366.8694793615699 88.42000000000002 367.75999999999993 C 90.21000000000002 369.47999999999996 92.07000000000002 371.2699999999999 92.62000000000002 373.75999999999993 C 92.7226973807238 374.0741813302619 92.63848300246316 374.41942133562014 92.4026521916997 374.6510255000632 C 92.16682138093624 374.8826296645062 91.8201149816388 374.96058731641926 91.50784209433404 374.85222540361286 C 91.1955692070293 374.74386349080646 90.97167639169467 374.46790202601994 90.93000000000002 374.13999999999993 C 90.49000000000002 372.18999999999994 88.82000000000002 370.5899999999999 87.22000000000003 369.0399999999999 C 86.08249456692785 368.04331627897847 85.07461397594912 366.90777081314246 84.22000000000003 365.6599999999999 C 84.10000000000002 365.4599999999999 83.98000000000003 365.2499999999999 83.87000000000003 365.0299999999999 C 83.22364231790331 363.867536576642 82.9611458849476 362.5305547447876 83.12000000000003 361.2099999999999 C 83.28808053189648 360.039601426716 83.96536724203806 359.00353581066156 84.97000000000003 358.37999999999994 L 85.25000000000003 358.22999999999996 C 85.70246030184389 357.9952337236623 86.20074002583824 357.862131605609 86.71000000000002 357.84 C 87.52437537922813 357.83153427958774 88.31755760101947 358.09945360783723 88.96000000000002 358.59999999999997 C 89.55200448550066 359.05734269356884 90.03384069490268 359.6416972453968 90.37000000000002 360.30999999999995 C 90.63587924163043 360.83485353788785 90.78270124902235 361.41189817159096 90.80000000000003 361.99999999999994 z" stroke-linecap="round" />
</g>
<g transform="matrix(2.12 0 0 2.12 441.67 828.92)"  >
<path style="stroke: none; stroke-width: 1; stroke-dasharray: none; stroke-linecap: butt; stroke-dashoffset: 0; stroke-linejoin: miter; stroke-miterlimit: 4; fill: rgb(221,133,156); fill-rule: evenodd; opacity: 1;" vector-effect="non-scaling-stroke"  transform=" translate(-98.66, -368.5)" d="M 107.54 356.89 C 107.62 361.58 106.47000000000001 376.31 102.7 380.11 L 94.62 380.11 C 90.85000000000001 376.31 89.7 361.58000000000004 89.78 356.89 z" stroke-linecap="round" />
</g>
<g transform="matrix(2.12 0 0 2.12 443.84 777.3)"  >
<path style="stroke: rgb(209,209,209); stroke-width: 1; stroke-dasharray: none; stroke-linecap: round; stroke-dashoffset: 0; stroke-linejoin: miter; stroke-miterlimit: 10; fill: none; fill-rule: nonzero; opacity: 1;" vector-effect="non-scaling-stroke"  transform=" translate(-99.69, -344.14)" d="M 99.48 350.34 C 98.92 349.78 96.48 346.82 99.48 344.14 C 102.48 341.46 101.41000000000001 340.38 99.59 337.95" stroke-linecap="round" />
</g>
<g transform="matrix(2.12 0 0 2.12 452.74 786.82)"  >
<path style="stroke: rgb(209,209,209); stroke-width: 1; stroke-dasharray: none; stroke-linecap: round; stroke-dashoffset: 0; stroke-linejoin: miter; stroke-miterlimit: 10; fill: none; fill-rule: nonzero; opacity: 1;" vector-effect="non-scaling-stroke"  transform=" translate(-103.89, -348.63)" d="M 103.68 354.83 C 103.12 354.27 100.68 351.31 103.68 348.64 C 106.68 345.96999999999997 105.61000000000001 344.88 103.79 342.44" stroke-linecap="round" />
</g>
<g transform="matrix(2.12 0 0 2.12 431.31 786.82)"  >
<path style="stroke: rgb(209,209,209); stroke-width: 1; stroke-dasharray: 15.4049 25.4049; stroke-linecap: round; stroke-dashoffset: 0; stroke-linejoin: miter; stroke-miterlimit: 10; fill: none; fill-rule: nonzero; opacity: 1;" vector-effect="non-scaling-stroke"  transform=" translate(-93.77, -348.63)" d="M 93.57 354.83 C 93 354.27 90.57 351.31 93.57 348.64 C 96.57 345.96999999999997 95.49 344.88 93.66999999999999 342.44" stroke-linecap="round" />
</g>
<g transform="matrix(2.12 0 0 2.12 699.73 831.77)"  >
<polygon style="stroke: none; stroke-width: 1; stroke-dasharray: none; stroke-linecap: butt; stroke-dashoffset: 0; stroke-linejoin: miter; stroke-miterlimit: 4; fill: rgb(210,207,214); fill-rule: nonzero; opacity: 1;" vector-effect="non-scaling-stroke"  points="17.69,7.87 15.22,-7.87 -15.22,-7.87 -17.69,7.87 17.69,7.87 " />
</g>
<g transform="matrix(2.12 0 0 2.12 699.81 795.57)"  >
<path style="stroke: none; stroke-width: 1; stroke-dasharray: none; stroke-linecap: butt; stroke-dashoffset: 0; stroke-linejoin: miter; stroke-miterlimit: 4; fill: rgb(255,255,255); fill-rule: nonzero; opacity: 1;" vector-effect="non-scaling-stroke"  transform=" translate(-220.43, -352.76)" d="M 124.59 363.8 C 122.76584393568014 363.7944889293567 121.28999167510091 362.31416438919996 121.29 360.49 L 121.29 341.73 L 319.58 341.73 L 319.58 360.49 C 319.57450888552046 362.315783190805 318.095783190805 363.7945088855205 316.27 363.8 z" stroke-linecap="round" />
</g>
<g transform="matrix(2.12 0 0 2.12 699.77 795.6)"  >
<path style="stroke: none; stroke-width: 1; stroke-dasharray: none; stroke-linecap: butt; stroke-dashoffset: 0; stroke-linejoin: miter; stroke-miterlimit: 4; fill: rgb(64,64,64); fill-rule: nonzero; opacity: 1;" vector-effect="non-scaling-stroke"  transform=" translate(-220.41, -352.78)" d="M 319.33 342 L 319.33 360.51 C 319.33 361.321562458909 319.00760806848183 362.09988543237984 318.4337467504308 362.67374675043084 C 317.8598854323798 363.24760806848184 317.081562458909 363.57 316.27 363.57 L 124.59 363.57 C 122.92348593384048 363.53731700103475 121.58967954793977 362.176834487416 121.59 360.51 L 121.59 342 L 319.33000000000004 342 M 319.83000000000004 341.5 L 121 341.5 L 121 360.5 C 120.9999922585574 362.4622350780473 122.58777266338006 364.0544881037286 124.55 364.06 L 316.27 364.06 C 317.21417070382876 364.06 318.1196706337491 363.6849296482991 318.7873001410241 363.0173001410241 C 319.45492964829907 362.3496706337491 319.83 361.4441707038288 319.83 360.5 L 319.83 341.5 z" stroke-linecap="round" />
</g>
<g transform="matrix(2.12 0 0 2.12 600.13 580.2)"  >
<polygon style="stroke: none; stroke-width: 1; stroke-dasharray: none; stroke-linecap: butt; stroke-dashoffset: 0; stroke-linejoin: miter; stroke-miterlimit: 4; fill: rgb(255,244,197); fill-rule: nonzero; opacity: 0.5;" vector-effect="non-scaling-stroke"  points="-30.41,-129.22 -124.39,129.22 124.39,129.22 22.19,-129.22 -30.41,-129.22 " />
</g>
<g transform="matrix(2.12 0 0 2.12 699.81 659.55)"  >
<path style="stroke: none; stroke-width: 1; stroke-dasharray: none; stroke-linecap: butt; stroke-dashoffset: 0; stroke-linejoin: miter; stroke-miterlimit: 4; fill: rgb(64,64,64); fill-rule: nonzero; opacity: 1;" vector-effect="non-scaling-stroke"  transform=" translate(-220.44, -288.55)" d="M 314.36 234.24 L 126.51 234.24 C 125.06456718241675 234.23468592651864 123.67622557686326 234.80379048204608 122.6503994692107 235.82211511907596 C 121.62457336155812 236.84043975610587 121.04529460801075 238.22456711098383 121.04 239.67000000000002 L 121.04 342.87 L 319.83 342.87 L 319.83 239.67000000000002 C 319.82470539198926 238.22456711098383 319.24542663844187 236.84043975610584 318.2196005307893 235.82211511907596 C 317.19377442313674 234.80379048204608 315.8054328175832 234.23468592651864 314.35999999999996 234.24 z" stroke-linecap="round" />
</g>
<g transform="matrix(2.12 0 0 2.12 700.02 659.63)"  >
<rect style="stroke: none; stroke-width: 1; stroke-dasharray: none; stroke-linecap: butt; stroke-dashoffset: 0; stroke-linejoin: miter; stroke-miterlimit: 4; fill: rgb(227,209,229); fill-rule: nonzero; opacity: 1;" vector-effect="non-scaling-stroke"  x="-92.145" y="-47.87" rx="0" ry="0" width="184.29" height="95.74" />
</g>
<g transform="matrix(2.12 0 0 2.12 699.75 850.95)"  >
<rect style="stroke: none; stroke-width: 1; stroke-dasharray: none; stroke-linecap: butt; stroke-dashoffset: 0; stroke-linejoin: miter; stroke-miterlimit: 4; fill: rgb(234,234,234); fill-rule: nonzero; opacity: 1;" vector-effect="non-scaling-stroke"  x="-32.135" y="-1.18" rx="0" ry="0" width="64.27" height="2.36" />
</g>
<g transform="matrix(2.12 0 0 2.12 699.71 797.4)"  >
<ellipse style="stroke: none; stroke-width: 1; stroke-dasharray: none; stroke-linecap: butt; stroke-dashoffset: 0; stroke-linejoin: miter; stroke-miterlimit: 4; fill: rgb(51,51,51); fill-rule: nonzero; opacity: 1;" vector-effect="non-scaling-stroke"  cx="0" cy="0" rx="3.84" ry="3.81" />
</g>
<g transform="matrix(2.12 0 0 2.12 768.73 659.63)" clip-path="url(#CLIPPATH_9)"  >
<clipPath id="CLIPPATH_9" >
	<rect transform="matrix(1 0 0 1 -32.45 0)" id="screen" x="-92.145" y="-47.87" rx="0" ry="0" width="184.29" height="95.74" />
</clipPath>
<rect style="stroke: none; stroke-width: 1; stroke-dasharray: none; stroke-linecap: butt; stroke-dashoffset: 0; stroke-linejoin: miter; stroke-miterlimit: 4; fill: rgb(86,82,102); fill-rule: nonzero; opacity: 1;" vector-effect="non-scaling-stroke"  x="-59.775" y="-47.87" rx="0" ry="0" width="119.55" height="95.74" />
</g>
<g transform="matrix(2.12 0 0 2.12 768.73 564.99)" clip-path="url(#CLIPPATH_10)"  >
<clipPath id="CLIPPATH_10" >
	<rect transform="matrix(1 0 0 1 -32.45 44.64)" id="screen" x="-92.145" y="-47.87" rx="0" ry="0" width="184.29" height="95.74" />
</clipPath>
<rect style="stroke: none; stroke-width: 1; stroke-dasharray: none; stroke-linecap: butt; stroke-dashoffset: 0; stroke-linejoin: miter; stroke-miterlimit: 4; fill: rgb(176,186,234); fill-rule: nonzero; opacity: 1;" vector-effect="non-scaling-stroke"  x="-59.775" y="-3.225" rx="0" ry="0" width="119.55" height="6.45" />
</g>
<g transform="matrix(2.12 0 0 2.12 654.26 564.98)" clip-path="url(#CLIPPATH_11)"  >
<clipPath id="CLIPPATH_11" >
	<rect transform="matrix(1 0 0 1 21.55 44.65)" id="screen" x="-92.145" y="-47.87" rx="0" ry="0" width="184.29" height="95.74" />
</clipPath>
<ellipse style="stroke: none; stroke-width: 1; stroke-dasharray: none; stroke-linecap: butt; stroke-dashoffset: 0; stroke-linejoin: miter; stroke-miterlimit: 4; fill: rgb(232,77,77); fill-rule: nonzero; opacity: 1;" vector-effect="non-scaling-stroke"  cx="0" cy="0" rx="1.4" ry="1.38" />
</g>
<g transform="matrix(2.12 0 0 2.12 665.3 564.98)" clip-path="url(#CLIPPATH_12)"  >
<clipPath id="CLIPPATH_12" >
	<rect transform="matrix(1 0 0 1 16.34 44.65)" id="screen" x="-92.145" y="-47.87" rx="0" ry="0" width="184.29" height="95.74" />
</clipPath>
<ellipse style="stroke: none; stroke-width: 1; stroke-dasharray: none; stroke-linecap: butt; stroke-dashoffset: 0; stroke-linejoin: miter; stroke-miterlimit: 4; fill: rgb(242,221,119); fill-rule: nonzero; opacity: 1;" vector-effect="non-scaling-stroke"  cx="0" cy="0" rx="1.4" ry="1.38" />
</g>
<g transform="matrix(2.12 0 0 2.12 675.79 564.98)" clip-path="url(#CLIPPATH_13)"  >
<clipPath id="CLIPPATH_13" >
	<rect transform="matrix(1 0 0 1 11.39 44.65)" id="screen" x="-92.145" y="-47.87" rx="0" ry="0" width="184.29" height="95.74" />
</clipPath>
<ellipse style="stroke: none; stroke-width: 1; stroke-dasharray: none; stroke-linecap: butt; stroke-dashoffset: 0; stroke-linejoin: miter; stroke-miterlimit: 4; fill: rgb(78,183,133); fill-rule: nonzero; opacity: 1;" vector-effect="non-scaling-stroke"  cx="0" cy="0" rx="1.4" ry="1.38" />
</g>
<g transform="matrix(2.12 0 0 2.12 662.35 665.53)" clip-path="url(#CLIPPATH_14)"  >
<clipPath id="CLIPPATH_14" >
	<rect transform="matrix(1 0 0 1 17.73 -2.79)" id="screen" x="-92.145" y="-47.87" rx="0" ry="0" width="184.29" height="95.74" />
</clipPath>
<path style="stroke: none; stroke-width: 1; stroke-dasharray: none; stroke-linecap: butt; stroke-dashoffset: 0; stroke-linejoin: miter; stroke-miterlimit: 4; fill: rgb(112,109,132); fill-rule: nonzero; opacity: 1;" vector-effect="non-scaling-stroke"  transform=" translate(-202.8, -291.38)" d="M 200.08 252.61 C 201.25 252.54000000000002 201.57000000000002 252.45000000000002 201.57000000000002 252.24 C 201.57000000000002 252.03 201.24 251.81 200.33 251.69 L 200.33 251.35 L 201.44000000000003 250.48999999999998 L 200.14000000000001 250.48999999999998 L 200.14000000000001 249.80999999999997 L 202.19000000000003 249.80999999999997 L 202.25000000000003 250.48999999999998 L 201.19000000000003 251.29 C 202.02000000000004 251.47 202.34000000000003 251.79999999999998 202.34000000000003 252.19 C 202.34000000000003 252.79 201.67000000000004 253.24 200.13000000000002 253.32 z M 203.13 253.24 L 203.06 252.63 C 204.06 251.93 204.56 251.47 204.56 251.01999999999998 C 204.56 250.56999999999996 204.24 250.51999999999998 203.16 250.48999999999998 L 203.23 249.76999999999998 C 204.85999999999999 249.76999999999998 205.34 250.23 205.34 250.76999999999998 C 205.34 251.30999999999997 204.84 251.90999999999997 204.02 252.52999999999997 L 205.41 252.52999999999997 L 205.41 253.19999999999996 z M 200.08 259.26 C 201.25 259.19 201.57000000000002 259.09 201.57000000000002 258.88 C 201.57000000000002 258.67 201.24 258.46 200.33 258.34 L 200.33 258 L 201.44000000000003 257.13 L 200.14000000000001 257.13 L 200.14000000000001 256.46 L 202.19000000000003 256.46 L 202.25000000000003 257.13 L 201.19000000000003 257.94 C 202.02000000000004 258.11 202.34000000000003 258.45 202.34000000000003 258.83 C 202.34000000000003 259.44 201.67000000000004 259.89 200.13000000000002 259.96999999999997 z M 203.13 259.89 L 203.06 259.28 C 204.06 258.57 204.56 258.11999999999995 204.56 257.66999999999996 C 204.56 257.21999999999997 204.24 257.16999999999996 203.16 257.14 L 203.23 256.40999999999997 C 204.85999999999999 256.40999999999997 205.34 256.88 205.34 257.40999999999997 C 205.34 257.93999999999994 204.84 258.55999999999995 204.02 259.17999999999995 L 205.41 259.17999999999995 L 205.41 259.84999999999997 z M 200.08 265.91 C 201.25 265.84000000000003 201.57000000000002 265.74 201.57000000000002 265.53000000000003 C 201.57000000000002 265.32000000000005 201.24 265.11 200.33 264.99 L 200.33 264.65000000000003 L 201.44000000000003 263.78000000000003 L 200.14000000000001 263.78000000000003 L 200.14000000000001 263.11 L 202.19000000000003 263.11 L 202.25000000000003 263.78000000000003 L 201.19000000000003 264.59000000000003 C 202.02000000000004 264.76000000000005 202.34000000000003 265.1 202.34000000000003 265.48 C 202.34000000000003 266.09000000000003 201.67000000000004 266.54 200.13000000000002 266.62 z M 205.23 266 L 205.23 266.59 L 204.5 266.59 L 204.5 266 L 203.06 266 C 203.0488262090583 265.0299616631669 203.15969619834996 264.06236902934864 203.39000000000001 263.12 L 204.23000000000002 263.17 L 203.68 265.33000000000004 L 204.5 265.33000000000004 L 204.5 264.20000000000005 L 205.23 264.12000000000006 L 205.23 265.2800000000001 L 205.6 265.2800000000001 L 205.53 265.9500000000001 z M 200.08 272.56 C 201.25 272.48 201.57000000000002 272.39 201.57000000000002 272.18 C 201.57000000000002 271.97 201.24 271.75 200.33 271.64 L 200.33 271.28999999999996 L 201.44000000000003 270.42999999999995 L 200.14000000000001 270.42999999999995 L 200.14000000000001 269.74999999999994 L 202.19000000000003 269.74999999999994 L 202.25000000000003 270.42999999999995 L 201.19000000000003 271.23999999999995 C 202.02000000000004 271.40999999999997 202.34000000000003 271.74999999999994 202.34000000000003 272.12999999999994 C 202.34000000000003 272.72999999999996 201.67000000000004 273.18999999999994 200.13000000000002 273.25999999999993 z M 203.17 273.27 L 203.17 272.54999999999995 C 204.33999999999997 272.46 204.7 272.34999999999997 204.7 272.05999999999995 C 204.7 271.7699999999999 204.31 271.63999999999993 203.26 271.5199999999999 L 203.37 269.74999999999994 L 205.37 269.74999999999994 L 205.31 270.43999999999994 L 204 270.43999999999994 L 204 271.0299999999999 C 205.11 271.19999999999993 205.44 271.5899999999999 205.44 272.0299999999999 C 205.4 272.6599999999999 204.74 273.1799999999999 203.17 273.2699999999999 z M 200.08 279.2 C 201.25 279.13 201.57000000000002 279.03999999999996 201.57000000000002 278.83 C 201.57000000000002 278.62 201.24 278.4 200.33 278.28 L 200.33 277.94 L 201.44000000000003 277.08 L 200.14000000000001 277.08 L 200.14000000000001 276.4 L 202.19000000000003 276.4 L 202.25000000000003 277.08 L 201.19000000000003 277.89 C 202.02000000000004 278.06 202.34000000000003 278.4 202.34000000000003 278.78 C 202.34000000000003 279.38 201.67000000000004 279.83 200.13000000000002 279.90999999999997 z M 203 278.55 C 203 277.55 203.56 276.82 204.83 276.28000000000003 L 205.15 276.93 C 204.31 277.24 203.96 277.54 203.82 277.93 C 204.6 277.48 205.48999999999998 277.85 205.48999999999998 278.73 C 205.48528260120094 279.1938706277246 205.22406362125272 279.61697977538574 204.8114754890243 279.8290393100954 C 204.39888735679588 280.0410988448051 203.9027930746073 280.00722895405323 203.52285499794607 279.7410612042788 C 203.14291692128486 279.4748934545044 202.94162773126294 279.0202074438332 202.99999999999997 278.56 z M 204.76 278.78000000000003 C 204.76 278.3 204.35 278.11 203.76 278.38000000000005 L 203.76 278.47 C 203.76 279.06 204.01 279.3 204.32 279.3 C 204.63 279.3 204.76 279.13 204.76 278.78000000000003 z M 200.08 285.85 C 201.25 285.78000000000003 201.57000000000002 285.69 201.57000000000002 285.48 C 201.57000000000002 285.27000000000004 201.24 285.05 200.33 284.93 L 200.33 284.59000000000003 L 201.44000000000003 283.73 L 200.14000000000001 283.73 L 200.14000000000001 283.05 L 202.19000000000003 283.05 L 202.25000000000003 283.73 L 201.19000000000003 284.53000000000003 C 202.02000000000004 284.71000000000004 202.34000000000003 285.04 202.34000000000003 285.43 C 202.34000000000003 286.03000000000003 201.67000000000004 286.48 200.13000000000002 286.56 z M 203.39 286.45 C 203.72669921657314 285.51434242399006 204.16604709013535 284.6188776740579 204.7 283.78 L 203.1 283.78 L 203.16 283.08 L 205.49 283.08 L 205.49 283.76 C 204.95972486488262 284.64518869438626 204.52399597210496 285.5836816942151 204.19 286.56 z M 200.08 292.5 C 201.25 292.43 201.57000000000002 292.33 201.57000000000002 292.12 C 201.57000000000002 291.91 201.24 291.7 200.33 291.58 L 200.33 291.24 L 201.44000000000003 290.37 L 200.14000000000001 290.37 L 200.14000000000001 289.7 L 202.19000000000003 289.7 L 202.25000000000003 290.37 L 201.19000000000003 291.18 C 202.02000000000004 291.35 202.34000000000003 291.69 202.34000000000003 292.07 C 202.34000000000003 292.68 201.67000000000004 293.13 200.13000000000002 293.21 z M 203 292.33 C 203.37549456971547 292.21332249457623 203.63532998128986 291.8709050684286 203.64662430028926 291.4778627672497 C 203.65791861928864 291.0848204660707 203.41817489089553 290.72804731751023 203.05 290.59 C 203.05 290.10999999999996 203.47 289.59 204.27 289.59 C 204.9 289.59 205.4 289.91999999999996 205.4 290.42999999999995 C 205.37658509421436 290.8092831117085 205.14021936037454 291.1425200479417 204.79 291.28999999999996 C 205.15 291.49999999999994 205.47 291.76 205.47 292.17999999999995 C 205.47 292.5999999999999 204.98 293.17999999999995 204.17 293.17999999999995 C 203.35999999999999 293.17999999999995 203 292.85999999999996 203 292.3299999999999 z M 204.71 292.33 C 204.71 292.08 204.39000000000001 291.89 204.03 291.69 C 203.8573958682271 291.80850160525824 203.7501098290454 292.0008765720668 203.74 292.21 C 203.74 292.46 203.89000000000001 292.65 204.24 292.65 C 204.59 292.65 204.72 292.47999999999996 204.72 292.29999999999995 z M 204.39000000000001 291.12 C 204.5488709862585 291.0098931191804 204.64840249530917 290.8329482142014 204.66000000000003 290.64 C 204.66000000000003 290.40999999999997 204.54000000000002 290.24 204.22000000000003 290.24 C 203.90000000000003 290.24 203.80000000000004 290.38 203.80000000000004 290.53000000000003 C 203.80000000000004 290.68000000000006 204.08000000000004 290.92 204.40000000000003 291.09000000000003 z M 200.08 299.15 C 201.25 299.08 201.57000000000002 298.97999999999996 201.57000000000002 298.77 C 201.57000000000002 298.56 201.24 298.34 200.33 298.22999999999996 L 200.33 297.87999999999994 L 201.44000000000003 297.0199999999999 L 200.14000000000001 297.0199999999999 L 200.14000000000001 296.3499999999999 L 202.19000000000003 296.3499999999999 L 202.25000000000003 297.0199999999999 L 201.19000000000003 297.8299999999999 C 202.02000000000004 297.99999999999994 202.34000000000003 298.3399999999999 202.34000000000003 298.7199999999999 C 202.34000000000003 299.31999999999994 201.67000000000004 299.7799999999999 200.13000000000002 299.8599999999999 z M 203.33 299.25 C 204.17000000000002 298.93 204.52 298.64 204.66000000000003 298.25 C 203.88000000000002 298.69 202.99000000000004 298.33 202.99000000000004 297.45 C 202.99471739879908 296.9861293722754 203.2559363787473 296.56302022461426 203.66852451097571 296.3509606899046 C 204.08111264320414 296.1389011551949 204.57720692539272 296.1727710459468 204.95714500205395 296.4389387957212 C 205.33708307871515 296.7051065454956 205.53837226873708 297.1597925561668 205.48000000000005 297.62 C 205.48000000000005 298.62 204.92000000000004 299.35 203.65000000000003 299.89 z M 204.74 297.8 L 204.74 297.71000000000004 C 204.74 297.12000000000006 204.49 296.88000000000005 204.18 296.88000000000005 C 203.87 296.88000000000005 203.72 297.05000000000007 203.72 297.39000000000004 C 203.72 297.88000000000005 204.13 298.06000000000006 204.74 297.80000000000007 z M 202.16 305.84 L 202.16 306.42999999999995 L 201.43 306.42999999999995 L 201.43 305.84 L 200 305.84 C 199.9888262090583 304.86996166316686 200.09969619834996 303.9023690293486 200.33 302.96 L 201.17000000000002 303.01 L 200.62 305.17 L 201.44 305.17 L 201.44 304.09000000000003 L 202.17 304.01000000000005 L 202.17 305.1700000000001 L 202.53 305.1700000000001 L 202.47 305.8400000000001 z M 202.94 304.77 C 202.94 303.65999999999997 203.45 302.91999999999996 204.28 302.91999999999996 C 205.11 302.91999999999996 205.54 303.56999999999994 205.54 304.65 C 205.54 305.73 205.03 306.5 204.19 306.5 C 203.35 306.5 202.94 305.85 202.94 304.77 z M 203.69 304.7 L 204.74 304.15999999999997 C 204.66 303.78 204.49 303.54999999999995 204.23000000000002 303.54999999999995 C 203.97000000000003 303.54999999999995 203.69000000000003 303.92999999999995 203.69000000000003 304.62999999999994 z M 204.79 304.78999999999996 L 203.79 305.31999999999994 C 203.87 305.68999999999994 204.03 305.9099999999999 204.29 305.9099999999999 C 204.54999999999998 305.9099999999999 204.79 305.4899999999999 204.79 304.7899999999999 z M 202.16 312.49 L 202.16 313.07 L 201.43 313.07 L 201.43 312.49 L 200 312.49 C 199.98775741165633 311.5199070981402 200.09864276001784 310.5521804215308 200.33 309.61 L 201.17000000000002 309.66 L 200.62 311.82000000000005 L 201.44 311.82000000000005 L 201.44 310.74000000000007 L 202.17 310.6600000000001 L 202.17 311.8200000000001 L 202.53 311.8200000000001 L 202.47 312.4900000000001 z M 203.09 313.07 L 203.09 312.42 L 204 312.42 L 204 310.66 L 203.19 310.66 L 203.19 310.09000000000003 L 204 310.00000000000006 L 204 309.59000000000003 L 204.76 309.53000000000003 L 204.76 312.41 L 205.57999999999998 312.41 L 205.51999999999998 313.06 z M 202.16 319.13 L 202.16 319.71999999999997 L 201.43 319.71999999999997 L 201.43 319.13 L 200 319.13 C 199.98828062261992 318.1632321519719 200.09916451902993 317.19887826501224 200.33 316.26 L 201.17000000000002 316.31 L 200.62 318.46 L 201.44 318.46 L 201.44 317.39 L 202.17 317.31 L 202.17 318.46 L 202.53 318.46 L 202.47 319.13 z M 203.13 319.72 L 203.06 319.11 C 204.06 318.40000000000003 204.56 317.95 204.56 317.5 C 204.56 317.05 204.24 317 203.16 316.97 L 203.23 316.24 C 204.85999999999999 316.24 205.34 316.71000000000004 205.34 317.29 C 205.34 317.87 204.84 318.43 204.02 319.05 L 205.41 319.05 L 205.41 319.72 z M 202.16 325.78 L 202.16 326.36999999999995 L 201.43 326.36999999999995 L 201.43 325.78 L 200 325.78 C 199.9888262090583 324.80996166316686 200.09969619834996 323.8423690293486 200.33 322.9 L 201.17000000000002 322.95 L 200.62 325.11 L 201.44 325.11 L 201.44 324 L 202.17 323.93 L 202.17 325.08 L 202.53 325.08 L 202.47 325.75 z M 203.15 325.74 C 204.32 325.67 204.64000000000001 325.57 204.64000000000001 325.36 C 204.64000000000001 325.15000000000003 204.31 324.94 203.4 324.82 L 203.4 324.48 L 204.51000000000002 323.61 L 203.21 323.61 L 203.21 322.94 L 205.21 322.94 L 205.27 323.61 L 204.21 324.42 C 205.04000000000002 324.59000000000003 205.36 324.93 205.36 325.31 C 205.36 325.92 204.69000000000003 326.37 203.15 326.45 z M 202.16 332.43 L 202.16 333 L 201.43 333 L 201.43 332.41 L 200 332.41 C 199.9888262090583 331.4399616631669 200.09969619834996 330.47236902934867 200.33 329.53000000000003 L 201.17000000000002 329.58000000000004 L 200.62 331.74000000000007 L 201.44 331.74000000000007 L 201.44 330.6600000000001 L 202.17 330.5800000000001 L 202.17 331.7400000000001 L 202.53 331.7400000000001 L 202.47 332.41000000000014 z M 205.23 332.43 L 205.23 333 L 204.5 333 L 204.5 332.41 L 203.06 332.41 C 203.0488262090583 331.4399616631669 203.15969619834996 330.47236902934867 203.39000000000001 329.53000000000003 L 204.23000000000002 329.58000000000004 L 203.68 331.74000000000007 L 204.5 331.74000000000007 L 204.5 330.6600000000001 L 205.23 330.5800000000001 L 205.23 331.7400000000001 L 205.6 331.7400000000001 L 205.53 332.41000000000014 z" stroke-linecap="round" />
</g>
<g transform="matrix(2.12 0 0 2.12 753.97 581.74)" clip-path="url(#CLIPPATH_15)"  >
<clipPath id="CLIPPATH_15" >
	<rect transform="matrix(1 0 0 1 -25.48 36.73)" id="screen" x="-92.145" y="-47.87" rx="0" ry="0" width="184.29" height="95.74" />
</clipPath>
<rect style="stroke: none; stroke-width: 1; stroke-dasharray: 0 999999; stroke-linecap: butt; stroke-dashoffset: 150.06; stroke-linejoin: miter; stroke-miterlimit: 4; fill: rgb(163,132,141); fill-rule: nonzero; opacity: 0.39;" vector-effect="non-scaling-stroke"  x="-35.48" y="-1.535" rx="0" ry="0" width="70.96" height="3.07" />
</g>
<g transform="matrix(2.12 0 0 2.12 758.84 595.71)" clip-path="url(#CLIPPATH_16)"  >
<clipPath id="CLIPPATH_16" >
	<rect transform="matrix(1 0 0 1 -27.79 30.14)" id="screen" x="-92.145" y="-47.87" rx="0" ry="0" width="184.29" height="95.74" />
</clipPath>
<rect style="stroke: none; stroke-width: 1; stroke-dasharray: 0 999999; stroke-linecap: butt; stroke-dashoffset: 159.26; stroke-linejoin: miter; stroke-miterlimit: 4; fill: rgb(165,132,146); fill-rule: nonzero; opacity: 0.39;" vector-effect="non-scaling-stroke"  x="-37.78" y="-1.535" rx="0" ry="0" width="75.56" height="3.07" />
</g>
<g transform="matrix(2.12 0 0 2.12 744.02 609.8)" clip-path="url(#CLIPPATH_17)"  >
<clipPath id="CLIPPATH_17" >
	<rect transform="matrix(1 0 0 1 -20.8 23.49)" id="screen" x="-92.145" y="-47.87" rx="0" ry="0" width="184.29" height="95.74" />
</clipPath>
<rect style="stroke: none; stroke-width: 1; stroke-dasharray: 0 999999; stroke-linecap: butt; stroke-dashoffset: 131.3; stroke-linejoin: miter; stroke-miterlimit: 4; fill: rgb(162,132,163); fill-rule: nonzero; opacity: 0.39;" vector-effect="non-scaling-stroke"  x="-30.79" y="-1.535" rx="0" ry="0" width="61.58" height="3.07" />
</g>
<g transform="matrix(2.12 0 0 2.12 734.59 624.02)" clip-path="url(#CLIPPATH_18)"  >
<clipPath id="CLIPPATH_18" >
	<rect transform="matrix(1 0 0 1 -16.34 16.78)" id="screen" x="-92.145" y="-47.87" rx="0" ry="0" width="184.29" height="95.74" />
</clipPath>
<rect style="stroke: none; stroke-width: 1; stroke-dasharray: 0 999999; stroke-linecap: butt; stroke-dashoffset: 113.5; stroke-linejoin: miter; stroke-miterlimit: 4; fill: rgb(144,132,160); fill-rule: nonzero; opacity: 0.39;" vector-effect="non-scaling-stroke"  x="-26.34" y="-1.535" rx="0" ry="0" width="52.68" height="3.07" />
</g>
<g transform="matrix(2.12 0 0 2.12 725.05 637.96)" clip-path="url(#CLIPPATH_19)"  >
<clipPath id="CLIPPATH_19" >
	<rect transform="matrix(1 0 0 1 -11.84 10.2)" id="screen" x="-92.145" y="-47.87" rx="0" ry="0" width="184.29" height="95.74" />
</clipPath>
<rect style="stroke: none; stroke-width: 1; stroke-dasharray: 0 999999; stroke-linecap: butt; stroke-dashoffset: 95.5; stroke-linejoin: miter; stroke-miterlimit: 4; fill: rgb(131,133,158); fill-rule: nonzero; opacity: 0.39;" vector-effect="non-scaling-stroke"  x="-21.84" y="-1.535" rx="0" ry="0" width="43.68" height="3.07" />
</g>
<g transform="matrix(2.12 0 0 2.12 756.21 652.16)" clip-path="url(#CLIPPATH_20)"  >
<clipPath id="CLIPPATH_20" >
	<rect transform="matrix(1 0 0 1 -26.55 3.5)" id="screen" x="-92.145" y="-47.87" rx="0" ry="0" width="184.29" height="95.74" />
</clipPath>
<rect style="stroke: none; stroke-width: 1; stroke-dasharray: 0 999999; stroke-linecap: butt; stroke-dashoffset: 154.3; stroke-linejoin: miter; stroke-miterlimit: 4; fill: rgb(131,146,155); fill-rule: nonzero; opacity: 0.39;" vector-effect="non-scaling-stroke"  x="-36.54" y="-1.535" rx="0" ry="0" width="73.08" height="3.07" />
</g>
<g transform="matrix(2.12 0 0 2.12 769.61 666.7)" clip-path="url(#CLIPPATH_21)"  >
<clipPath id="CLIPPATH_21" >
	<rect transform="matrix(1 0 0 1 -32.87 -3.36)" id="screen" x="-92.145" y="-47.87" rx="0" ry="0" width="184.29" height="95.74" />
</clipPath>
<rect style="stroke: none; stroke-width: 1; stroke-dasharray: 0 999999; stroke-linecap: butt; stroke-dashoffset: 179.58; stroke-linejoin: miter; stroke-miterlimit: 4; fill: rgb(130,153,149); fill-rule: nonzero; opacity: 0.39;" vector-effect="non-scaling-stroke"  x="-42.86" y="-1.535" rx="0" ry="0" width="85.72" height="3.07" />
</g>
<g transform="matrix(2.12 0 0 2.12 754.58 680.35)" clip-path="url(#CLIPPATH_22)"  >
<clipPath id="CLIPPATH_22" >
	<rect transform="matrix(1 0 0 1 -25.78 -9.8)" id="screen" x="-92.145" y="-47.87" rx="0" ry="0" width="184.29" height="95.74" />
</clipPath>
<rect style="stroke: none; stroke-width: 1; stroke-dasharray: 0 999999; stroke-linecap: butt; stroke-dashoffset: 151.22; stroke-linejoin: miter; stroke-miterlimit: 4; fill: rgb(132,153,139); fill-rule: nonzero; opacity: 0.39;" vector-effect="non-scaling-stroke"  x="-35.77" y="-1.535" rx="0" ry="0" width="71.54" height="3.07" />
</g>
<g transform="matrix(2.12 0 0 2.12 750.32 694.44)" clip-path="url(#CLIPPATH_23)"  >
<clipPath id="CLIPPATH_23" >
	<rect transform="matrix(1 0 0 1 -23.77 -16.45)" id="screen" x="-92.145" y="-47.87" rx="0" ry="0" width="184.29" height="95.74" />
</clipPath>
<rect style="stroke: none; stroke-width: 1; stroke-dasharray: 0 999999; stroke-linecap: butt; stroke-dashoffset: 143.18; stroke-linejoin: miter; stroke-miterlimit: 4; fill: rgb(137,153,133); fill-rule: nonzero; opacity: 0.39;" vector-effect="non-scaling-stroke"  x="-33.76" y="-1.535" rx="0" ry="0" width="67.52" height="3.07" />
</g>
<g transform="matrix(2.12 0 0 2.12 712.78 708.4)" clip-path="url(#CLIPPATH_24)"  >
<clipPath id="CLIPPATH_24" >
	<rect transform="matrix(1 0 0 1 -6.06 -23.04)" id="screen" x="-92.145" y="-47.87" rx="0" ry="0" width="184.29" height="95.74" />
</clipPath>
<rect style="stroke: none; stroke-width: 1; stroke-dasharray: 0 999999; stroke-linecap: butt; stroke-dashoffset: 72.34; stroke-linejoin: miter; stroke-miterlimit: 4; fill: rgb(151,153,135); fill-rule: nonzero; opacity: 0.39;" vector-effect="non-scaling-stroke"  x="-16.05" y="-1.535" rx="0" ry="0" width="32.1" height="3.07" />
</g>
<g transform="matrix(2.12 0 0 2.12 777.84 722.5)" clip-path="url(#CLIPPATH_25)"  >
<clipPath id="CLIPPATH_25" >
	<rect transform="matrix(1 0 0 1 -36.74 -29.69)" id="screen" x="-92.145" y="-47.87" rx="0" ry="0" width="184.29" height="95.74" />
</clipPath>
<rect style="stroke: none; stroke-width: 1; stroke-dasharray: 0 999999; stroke-linecap: butt; stroke-dashoffset: 195.1; stroke-linejoin: miter; stroke-miterlimit: 4; fill: rgb(153,148,136); fill-rule: nonzero; opacity: 0.39;" vector-effect="non-scaling-stroke"  x="-46.74" y="-1.535" rx="0" ry="0" width="93.48" height="3.07" />
</g>
<g transform="matrix(2.12 0 0 2.12 750.32 736.59)" clip-path="url(#CLIPPATH_26)"  >
<clipPath id="CLIPPATH_26" >
	<rect transform="matrix(1 0 0 1 -23.77 -36.34)" id="screen" x="-92.145" y="-47.87" rx="0" ry="0" width="184.29" height="95.74" />
</clipPath>
<rect style="stroke: none; stroke-width: 1; stroke-dasharray: 0 999999; stroke-linecap: butt; stroke-dashoffset: 143.18; stroke-linejoin: miter; stroke-miterlimit: 4; fill: rgb(153,142,138); fill-rule: nonzero; opacity: 0.39;" vector-effect="non-scaling-stroke"  x="-33.76" y="-1.535" rx="0" ry="0" width="67.52" height="3.07" />
</g>
<g transform="matrix(2.12 0 0 2.12 731.53 750.68)" clip-path="url(#CLIPPATH_27)"  >
<clipPath id="CLIPPATH_27" >
	<rect transform="matrix(1 0 0 1 -14.91 -42.99)" id="screen" x="-92.145" y="-47.87" rx="0" ry="0" width="184.29" height="95.74" />
</clipPath>
<rect style="stroke: none; stroke-width: 1; stroke-dasharray: 0 999999; stroke-linecap: butt; stroke-dashoffset: 108.2; stroke-linejoin: miter; stroke-miterlimit: 4; fill: rgb(153,140,140); fill-rule: nonzero; opacity: 0.39;" vector-effect="non-scaling-stroke"  x="-25.015" y="-1.535" rx="0" ry="0" width="50.03" height="3.07" />
</g>
<g transform="matrix(2.12 0 0 2.12 834.52 712.61)" clip-path="url(#CLIPPATH_28)"  >
<clipPath id="CLIPPATH_28" >
	<rect transform="matrix(1 0 0 1 -63.51 -25.02)" id="screen" x="-92.145" y="-47.87" rx="0" ry="0" width="184.29" height="95.74" />
</clipPath>
<rect style="stroke: none; stroke-width: 1; stroke-dasharray: none; stroke-linecap: butt; stroke-dashoffset: 0; stroke-linejoin: miter; stroke-miterlimit: 4; fill: rgb(51,51,51); fill-rule: nonzero; opacity: 1;" vector-effect="non-scaling-stroke"  x="-24.37" y="-19.285" rx="0" ry="0" width="48.74" height="38.57" />
</g>
<g transform="matrix(2.12 0 0 2.12 834.43 668.94)" clip-path="url(#CLIPPATH_29)"  >
<clipPath id="CLIPPATH_29" >
	<rect transform="matrix(1 0 0 1 -63.47 -4.41)" id="screen" x="-92.145" y="-47.87" rx="0" ry="0" width="184.29" height="95.74" />
</clipPath>
<path style="stroke: none; stroke-width: 1; stroke-dasharray: none; stroke-linecap: butt; stroke-dashoffset: 0; stroke-linejoin: miter; stroke-miterlimit: 4; fill: rgb(211,211,211); fill-rule: nonzero; opacity: 1;" vector-effect="non-scaling-stroke"  transform=" translate(-284, -293.01)" d="M 260.33 290.39 L 307.54999999999995 290.39 C 307.778086181262 290.39 307.9968305463551 290.48060688271426 308.1581118318204 290.64188816817955 C 308.3193931172857 290.80316945364484 308.40999999999997 291.02191381873797 308.40999999999997 291.25 L 308.40999999999997 295.63 L 259.58 295.63 L 259.58 291.14 C 259.58 290.7257864376269 259.9157864376269 290.39 260.33 290.39 z" stroke-linecap="round" />
</g>
<g transform="matrix(2.12 0 0 2.12 788.62 669.51)" clip-path="url(#CLIPPATH_30)"  >
<clipPath id="CLIPPATH_30" >
	<rect transform="matrix(1 0 0 1 -41.86 -4.68)" id="screen" x="-92.145" y="-47.87" rx="0" ry="0" width="184.29" height="95.74" />
</clipPath>
<circle style="stroke: none; stroke-width: 1; stroke-dasharray: none; stroke-linecap: butt; stroke-dashoffset: 0; stroke-linejoin: miter; stroke-miterlimit: 4; fill: rgb(232,77,77); fill-rule: nonzero; opacity: 1;" vector-effect="non-scaling-stroke"  cx="0" cy="0" r="1.04" />
</g>
<g transform="matrix(2.12 0 0 2.12 796.87 669.51)" clip-path="url(#CLIPPATH_31)"  >
<clipPath id="CLIPPATH_31" >
	<rect transform="matrix(1 0 0 1 -45.74 -4.68)" id="screen" x="-92.145" y="-47.87" rx="0" ry="0" width="184.29" height="95.74" />
</clipPath>
<circle style="stroke: none; stroke-width: 1; stroke-dasharray: none; stroke-linecap: butt; stroke-dashoffset: 0; stroke-linejoin: miter; stroke-miterlimit: 4; fill: rgb(242,221,119); fill-rule: nonzero; opacity: 1;" vector-effect="non-scaling-stroke"  cx="0" cy="0" r="1.04" />
</g>
<g transform="matrix(2.12 0 0 2.12 804.73 669.51)" clip-path="url(#CLIPPATH_32)"  >
<clipPath id="CLIPPATH_32" >
	<rect transform="matrix(1 0 0 1 -49.45 -4.68)" id="screen" x="-92.145" y="-47.87" rx="0" ry="0" width="184.29" height="95.74" />
</clipPath>
<circle style="stroke: none; stroke-width: 1; stroke-dasharray: none; stroke-linecap: butt; stroke-dashoffset: 0; stroke-linejoin: miter; stroke-miterlimit: 4; fill: rgb(78,183,133); fill-rule: nonzero; opacity: 1;" vector-effect="non-scaling-stroke"  cx="0" cy="0" r="1.04" />
</g>
<g transform="matrix(2.12 0 0 2.12 794.03 686.32)" clip-path="url(#CLIPPATH_33)"  >
<clipPath id="CLIPPATH_33" >
	<rect transform="matrix(1 0 0 1 -44.41 -12.61)" id="screen" x="-92.145" y="-47.87" rx="0" ry="0" width="184.29" height="95.74" />
</clipPath>
<path style="stroke: none; stroke-width: 1; stroke-dasharray: none; stroke-linecap: butt; stroke-dashoffset: 0; stroke-linejoin: miter; stroke-miterlimit: 4; fill: rgb(131,229,171); fill-rule: nonzero; opacity: 1;" vector-effect="non-scaling-stroke"  transform=" translate(-264.94, -301.21)" d="M 264.11 303.17 C 264.00318598969875 303.16974898106736 263.9001104339875 303.13065135648725 263.82 303.06 C 263.73863581750726 302.98971653456397 263.69186773244894 302.88751695543687 263.69186773244894 302.78 C 263.69186773244894 302.67248304456314 263.73863581750726 302.57028346543603 263.82 302.5 L 265.18 301.22 L 263.82 299.93 C 263.73903376366553 299.8615981916311 263.69232520310976 299.7609921639288 263.69232520310976 299.655 C 263.69232520310976 299.5490078360712 263.73903376366553 299.4484018083689 263.82 299.38 C 263.8968969144997 299.3030573271419 264.00121897975237 299.2598275349238 264.11 299.2598275349238 C 264.2187810202476 299.2598275349238 264.3231030855003 299.3030573271419 264.4 299.38 L 266.06 300.94 C 266.1394640255092 301.01097681095473 266.18340577517705 301.1135075601797 266.18 301.21999999999997 C 266.18047746330683 301.32302475497573 266.1367919327134 301.4213171988109 266.06 301.48999999999995 L 264.4 303.05999999999995 C 264.31898245803814 303.12913312785804 264.21648603512057 303.1680110813785 264.10999999999996 303.16999999999996 z" stroke-linecap="round" />
</g>
<g transform="matrix(2.12 0 0 2.12 799.92 689.64)" clip-path="url(#CLIPPATH_34)"  >
<clipPath id="CLIPPATH_34" >
	<rect transform="matrix(1 0 0 1 -47.19 -14.18)" id="screen" x="-92.145" y="-47.87" rx="0" ry="0" width="184.29" height="95.74" />
</clipPath>
<path style="stroke: none; stroke-width: 1; stroke-dasharray: none; stroke-linecap: butt; stroke-dashoffset: 0; stroke-linejoin: miter; stroke-miterlimit: 4; fill: rgb(131,229,171); fill-rule: nonzero; opacity: 1;" vector-effect="non-scaling-stroke"  transform=" translate(-267.72, -302.78)" d="M 269.33 302.78 C 269.32738073632396 302.6739024144914 269.28270462656667 302.5731948865812 269.20580734333686 302.50004869033813 C 269.128910060107 302.42690249409515 269.02609592774655 302.3873144258446 268.91999999999996 302.39 L 266.49999999999994 302.39 C 266.3606663953534 302.3899999631264 266.231916819483 302.46433353512646 266.16225000651525 302.5849999702057 C 266.0925831935475 302.70566640528483 266.0925831935475 302.8543335947151 266.16225000651525 302.9750000297943 C 266.231916819483 303.0956664648735 266.3606663953534 303.17000003687355 266.49999999999994 303.16999999999996 L 268.91999999999996 303.16999999999996 C 269.02609592774655 303.17268557415537 269.128910060107 303.1330975059048 269.20580734333686 303.0599513096618 C 269.28270462656667 302.98680511341877 269.32738073632396 302.88609758550854 269.33 302.78 z" stroke-linecap="round" />
</g>
<g transform="matrix(2.12 0 0 2.12 571.92 820.49)" clip-path="url(#CLIPPATH_35)"  >
<clipPath id="CLIPPATH_35" >
	<rect transform="matrix(1 0 0 1 0.05 -75.36)" id="clippy" clip-path="url(#undefined)" x="-26.19" y="-40.92" rx="0" ry="0" width="52.38" height="81.84" />
</clipPath>
<rect style="stroke: none; stroke-width: 1; stroke-dasharray: none; stroke-linecap: butt; stroke-dashoffset: 0; stroke-linejoin: miter; stroke-miterlimit: 4; fill: rgb(240,240,242); fill-rule: nonzero; opacity: 1;" vector-effect="non-scaling-stroke"  x="-26.235" y="-121.065" rx="3.57" ry="3.57" width="52.47" height="242.13" />
</g>
<g transform="matrix(2.12 0 0 2.12 567.1 592.23)" clip-path="url(#CLIPPATH_36)"  >
<clipPath id="CLIPPATH_36" >
	<rect transform="matrix(1 0 0 1 2.32 32.31)" id="clippy" clip-path="url(#undefined)" x="-26.19" y="-40.92" rx="0" ry="0" width="52.38" height="81.84" />
</clipPath>
<line style="stroke: rgb(221,133,156); stroke-width: 1.2; stroke-dasharray: none; stroke-linecap: round; stroke-dashoffset: 0; stroke-linejoin: miter; stroke-miterlimit: 10; fill: none; fill-rule: nonzero; opacity: 1;" vector-effect="non-scaling-stroke"  x1="-16.17500000000001" y1="0" x2="16.17500000000001" y2="0" />
</g>
<g transform="matrix(2.12 0 0 2.12 573.2 603.44)" clip-path="url(#CLIPPATH_37)"  >
<clipPath id="CLIPPATH_37" >
	<rect transform="matrix(1 0 0 1 -0.55 27.02)" id="clippy" clip-path="url(#undefined)" x="-26.19" y="-40.92" rx="0" ry="0" width="52.38" height="81.84" />
</clipPath>
<line style="stroke: rgb(221,133,156); stroke-width: 1.2; stroke-dasharray: none; stroke-linecap: round; stroke-dashoffset: 0; stroke-linejoin: miter; stroke-miterlimit: 10; fill: none; fill-rule: nonzero; opacity: 1;" vector-effect="non-scaling-stroke"  x1="-19.05000000000001" y1="0" x2="19.05000000000001" y2="0" />
</g>
<g transform="matrix(2.12 0 0 2.12 567.1 614.67)" clip-path="url(#CLIPPATH_38)"  >
<clipPath id="CLIPPATH_38" >
	<rect transform="matrix(1 0 0 1 2.32 21.72)" id="clippy" clip-path="url(#undefined)" x="-26.19" y="-40.92" rx="0" ry="0" width="52.38" height="81.84" />
</clipPath>
<line style="stroke: rgb(221,133,156); stroke-width: 1.2; stroke-dasharray: none; stroke-linecap: round; stroke-dashoffset: 0; stroke-linejoin: miter; stroke-miterlimit: 10; fill: none; fill-rule: nonzero; opacity: 1;" vector-effect="non-scaling-stroke"  x1="-16.17500000000001" y1="0" x2="16.17500000000001" y2="0" />
</g>
<g transform="matrix(2.12 0 0 2.12 571.94 662.03)" clip-path="url(#CLIPPATH_39)"  >
<clipPath id="CLIPPATH_39" >
	<rect transform="matrix(1 0 0 1 0.04 -0.63)" id="clippy" clip-path="url(#undefined)" x="-26.19" y="-40.92" rx="0" ry="0" width="52.38" height="81.84" />
</clipPath>
<rect style="stroke: none; stroke-width: 1; stroke-dasharray: none; stroke-linecap: butt; stroke-dashoffset: 0; stroke-linejoin: miter; stroke-miterlimit: 4; fill: rgb(242,197,194); fill-rule: nonzero; opacity: 1;" vector-effect="non-scaling-stroke"  x="-20.295" y="-14.075" rx="3.22" ry="3.22" width="40.59" height="28.15" />
</g>
<g transform="matrix(2.12 0 0 2.12 548.33 650.91)" clip-path="url(#CLIPPATH_40)"  >
<clipPath id="CLIPPATH_40" >
	<rect transform="matrix(1 0 0 1 11.18 4.62)" id="clippy" clip-path="url(#undefined)" x="-26.19" y="-40.92" rx="0" ry="0" width="52.38" height="81.84" />
</clipPath>
<path style="stroke: none; stroke-width: 1; stroke-dasharray: none; stroke-linecap: butt; stroke-dashoffset: 0; stroke-linejoin: miter; stroke-miterlimit: 4; fill: rgb(255,255,255); fill-rule: nonzero; opacity: 0.48;" vector-effect="non-scaling-stroke"  transform=" translate(-148.99, -284.5)" d="M 154.57 284.27 C 154.66387131407845 286.5454842295407 153.36547405109826 288.64966571848754 151.28956304294883 289.58627331440977 C 149.21365203479937 290.522880910332 146.77687175531534 290.10393334743316 145.13296959273998 288.52779059299263 C 143.48906743016465 286.9516478385521 142.9679817820849 284.53464867878677 143.81643214577542 282.42117469436 C 144.66488250946594 280.3077007099333 146.71258116355187 278.9219354293046 148.98999999999998 278.91999999999996 C 150.43987858751214 278.8878394986741 151.84298648108782 279.43381388855937 152.8898048916525 280.4374838700147 C 153.93662330221716 281.4411538514701 154.54113944719555 282.8200519716681 154.57 284.27 z" stroke-linecap="round" />
</g>
<g transform="matrix(2.12 0 0 2.12 557.21 682.29)" clip-path="url(#CLIPPATH_41)"  >
<clipPath id="CLIPPATH_41" >
	<rect transform="matrix(1 0 0 1 6.99 -10.19)" id="clippy" clip-path="url(#undefined)" x="-26.19" y="-40.92" rx="0" ry="0" width="52.38" height="81.84" />
</clipPath>
<line style="stroke: rgb(255,255,255); stroke-width: 1.2; stroke-dasharray: none; stroke-linecap: round; stroke-dashoffset: 0; stroke-linejoin: miter; stroke-miterlimit: 10; fill: none; fill-rule: nonzero; opacity: 0.68;" vector-effect="non-scaling-stroke"  x1="-8.379999999999995" y1="0" x2="8.379999999999995" y2="0" />
</g>
<g transform="matrix(2.12 0 0 2.12 565.43 672.5)" clip-path="url(#CLIPPATH_42)"  >
<clipPath id="CLIPPATH_42" >
	<rect transform="matrix(1 0 0 1 3.11 -5.57)" id="clippy" clip-path="url(#undefined)" x="-26.19" y="-40.92" rx="0" ry="0" width="52.38" height="81.84" />
</clipPath>
<line style="stroke: rgb(255,255,255); stroke-width: 1.2; stroke-dasharray: none; stroke-linecap: round; stroke-dashoffset: 0; stroke-linejoin: miter; stroke-miterlimit: 10; fill: none; fill-rule: nonzero; opacity: 0.68;" vector-effect="non-scaling-stroke"  x1="-12.259999999999991" y1="0" x2="12.259999999999991" y2="0" />
</g>
<g transform="matrix(2.12 0 0 2.12 568.86 753.85)" clip-path="url(#CLIPPATH_43)"  >
<clipPath id="CLIPPATH_43" >
	<rect transform="matrix(1 0 0 1 1.49 -43.95)" id="clippy" clip-path="url(#undefined)" x="-26.19" y="-40.92" rx="0" ry="0" width="52.38" height="81.84" />
</clipPath>
<rect style="stroke: none; stroke-width: 1; stroke-dasharray: none; stroke-linecap: butt; stroke-dashoffset: 0; stroke-linejoin: miter; stroke-miterlimit: 4; fill: rgb(189,192,244); fill-rule: nonzero; opacity: 1;" vector-effect="non-scaling-stroke"  x="-18.845" y="-24.66" rx="3.34" ry="3.34" width="37.69" height="49.32" />
</g>
<g transform="matrix(2.12 0 0 2.12 554.5 754.51)" clip-path="url(#CLIPPATH_44)"  >
<clipPath id="CLIPPATH_44" >
	<rect transform="matrix(1 0 0 1 8.26 -44.27)" id="clippy" clip-path="url(#undefined)" x="-26.19" y="-40.92" rx="0" ry="0" width="52.38" height="81.84" />
</clipPath>
<line style="stroke: rgb(255,255,255); stroke-width: 1.2; stroke-dasharray: none; stroke-linecap: round; stroke-dashoffset: 0; stroke-linejoin: miter; stroke-miterlimit: 10; fill: none; fill-rule: nonzero; opacity: 0.81;" vector-effect="non-scaling-stroke"  x1="-5.784999999999997" y1="0" x2="5.784999999999997" y2="0" />
</g>
<g transform="matrix(2.12 0 0 2.12 560.19 744.72)" clip-path="url(#CLIPPATH_45)"  >
<clipPath id="CLIPPATH_45" >
	<rect transform="matrix(1 0 0 1 5.58 -39.65)" id="clippy" clip-path="url(#undefined)" x="-26.19" y="-40.92" rx="0" ry="0" width="52.38" height="81.84" />
</clipPath>
<line style="stroke: rgb(255,255,255); stroke-width: 1.2; stroke-dasharray: none; stroke-linecap: round; stroke-dashoffset: 0; stroke-linejoin: miter; stroke-miterlimit: 10; fill: none; fill-rule: nonzero; opacity: 0.81;" vector-effect="non-scaling-stroke"  x1="-8.465000000000003" y1="0" x2="8.465000000000003" y2="0" />
</g>
<g transform="matrix(2.12 0 0 2.12 565.92 734.42)" clip-path="url(#CLIPPATH_46)"  >
<clipPath id="CLIPPATH_46" >
	<rect transform="matrix(1 0 0 1 2.88 -34.79)" id="clippy" clip-path="url(#undefined)" x="-26.19" y="-40.92" rx="0" ry="0" width="52.38" height="81.84" />
</clipPath>
<line style="stroke: rgb(255,255,255); stroke-width: 1.2; stroke-dasharray: none; stroke-linecap: round; stroke-dashoffset: 0; stroke-linejoin: miter; stroke-miterlimit: 10; fill: none; fill-rule: nonzero; opacity: 0.81;" vector-effect="non-scaling-stroke"  x1="-11.170000000000002" y1="0" x2="11.170000000000002" y2="0" />
</g>
<g transform="matrix(2.12 0 0 2.12 570.12 723.21)" clip-path="url(#CLIPPATH_47)"  >
<clipPath id="CLIPPATH_47" >
	<rect transform="matrix(1 0 0 1 0.9 -29.5)" id="clippy" clip-path="url(#undefined)" x="-26.19" y="-40.92" rx="0" ry="0" width="52.38" height="81.84" />
</clipPath>
<line style="stroke: rgb(255,255,255); stroke-width: 1.2; stroke-dasharray: none; stroke-linecap: round; stroke-dashoffset: 0; stroke-linejoin: miter; stroke-miterlimit: 10; fill: none; fill-rule: nonzero; opacity: 0.81;" vector-effect="non-scaling-stroke"  x1="-13.149999999999991" y1="0" x2="13.149999999999991" y2="0" />
</g>
<g transform="matrix(2.12 0 0 2.12 565.92 711.98)" clip-path="url(#CLIPPATH_48)"  >
<clipPath id="CLIPPATH_48" >
	<rect transform="matrix(1 0 0 1 2.88 -24.2)" id="clippy" clip-path="url(#undefined)" x="-26.19" y="-40.92" rx="0" ry="0" width="52.38" height="81.84" />
</clipPath>
<line style="stroke: rgb(255,255,255); stroke-width: 1.2; stroke-dasharray: none; stroke-linecap: round; stroke-dashoffset: 0; stroke-linejoin: miter; stroke-miterlimit: 10; fill: none; fill-rule: nonzero; opacity: 0.81;" vector-effect="non-scaling-stroke"  x1="-11.170000000000002" y1="0" x2="11.170000000000002" y2="0" />
</g>
<g transform="matrix(2.12 0 0 2.12 571.94 880.96)" clip-path="url(#CLIPPATH_49)"  >
<clipPath id="CLIPPATH_49" >
	<rect transform="matrix(1 0 0 1 0.04 -103.93)" id="clippy" clip-path="url(#undefined)" x="-26.19" y="-40.92" rx="0" ry="0" width="52.38" height="81.84" />
</clipPath>
<rect style="stroke: none; stroke-width: 1; stroke-dasharray: none; stroke-linecap: butt; stroke-dashoffset: 0; stroke-linejoin: miter; stroke-miterlimit: 4; fill: rgb(194,231,239); fill-rule: nonzero; opacity: 1;" vector-effect="non-scaling-stroke"  x="-20.295" y="-29.23" rx="3.22" ry="3.22" width="40.59" height="58.46" />
</g>
<g transform="matrix(2.12 0 0 2.12 554.54 925.6)" clip-path="url(#CLIPPATH_50)"  >
<clipPath id="CLIPPATH_50" >
	<rect transform="matrix(1 0 0 1 8.24 -125.01)" id="clippy" clip-path="url(#undefined)" x="-26.19" y="-40.92" rx="0" ry="0" width="52.38" height="81.84" />
</clipPath>
<line style="stroke: rgb(255,255,255); stroke-width: 1.2; stroke-dasharray: none; stroke-linecap: round; stroke-dashoffset: 0; stroke-linejoin: miter; stroke-miterlimit: 10; fill: none; fill-rule: nonzero; opacity: 0.81;" vector-effect="non-scaling-stroke"  x1="-6.945000000000007" y1="0" x2="6.945000000000007" y2="0" />
</g>
<g transform="matrix(2.12 0 0 2.12 558.98 917.91)" clip-path="url(#CLIPPATH_51)"  >
<clipPath id="CLIPPATH_51" >
	<rect transform="matrix(1 0 0 1 6.15 -121.38)" id="clippy" clip-path="url(#undefined)" x="-26.19" y="-40.92" rx="0" ry="0" width="52.38" height="81.84" />
</clipPath>
<line style="stroke: rgb(255,255,255); stroke-width: 1.2; stroke-dasharray: none; stroke-linecap: round; stroke-dashoffset: 0; stroke-linejoin: miter; stroke-miterlimit: 10; fill: none; fill-rule: nonzero; opacity: 0.81;" vector-effect="non-scaling-stroke"  x1="-9.165000000000006" y1="0" x2="9.165000000000006" y2="0" />
</g>
<g transform="matrix(2.12 0 0 2.12 561.93 909.84)" clip-path="url(#CLIPPATH_52)"  >
<clipPath id="CLIPPATH_52" >
	<rect transform="matrix(1 0 0 1 4.76 -117.57)" id="clippy" clip-path="url(#undefined)" x="-26.19" y="-40.92" rx="0" ry="0" width="52.38" height="81.84" />
</clipPath>
<line style="stroke: rgb(255,255,255); stroke-width: 1.2; stroke-dasharray: none; stroke-linecap: round; stroke-dashoffset: 0; stroke-linejoin: miter; stroke-miterlimit: 10; fill: none; fill-rule: nonzero; opacity: 0.81;" vector-effect="non-scaling-stroke"  x1="-10.789999999999992" y1="0" x2="10.789999999999992" y2="0" />
</g>
<g transform="matrix(2.12 0 0 2.12 560.52 901.85)" clip-path="url(#CLIPPATH_53)"  >
<clipPath id="CLIPPATH_53" >
	<rect transform="matrix(1 0 0 1 5.43 -113.8)" id="clippy" clip-path="url(#undefined)" x="-26.19" y="-40.92" rx="0" ry="0" width="52.38" height="81.84" />
</clipPath>
<line style="stroke: rgb(255,255,255); stroke-width: 1.2; stroke-dasharray: none; stroke-linecap: round; stroke-dashoffset: 0; stroke-linejoin: miter; stroke-miterlimit: 10; fill: none; fill-rule: nonzero; opacity: 0.68;" vector-effect="non-scaling-stroke"  x1="-10.060000000000002" y1="0" x2="10.060000000000002" y2="0" />
</g>
<g transform="matrix(2.12 0 0 2.12 553.9 893.88)" clip-path="url(#CLIPPATH_54)"  >
<clipPath id="CLIPPATH_54" >
	<rect transform="matrix(1 0 0 1 8.54 -110.04)" id="clippy" clip-path="url(#undefined)" x="-26.19" y="-40.92" rx="0" ry="0" width="52.38" height="81.84" />
</clipPath>
<line style="stroke: rgb(255,255,255); stroke-width: 1.2; stroke-dasharray: none; stroke-linecap: round; stroke-dashoffset: 0; stroke-linejoin: miter; stroke-miterlimit: 10; fill: none; fill-rule: nonzero; opacity: 0.68;" vector-effect="non-scaling-stroke"  x1="-6.875" y1="0" x2="6.875" y2="0" />
</g>
<g transform="matrix(2.12 0 0 2.12 570.41 853.59)" clip-path="url(#CLIPPATH_55)"  >
<clipPath id="CLIPPATH_55" >
	<rect transform="matrix(1 0 0 1 0.76 -91.03)" id="clippy" clip-path="url(#undefined)" x="-26.19" y="-40.92" rx="0" ry="0" width="52.38" height="81.84" />
</clipPath>
<rect style="stroke: none; stroke-width: 1; stroke-dasharray: none; stroke-linecap: butt; stroke-dashoffset: 0; stroke-linejoin: miter; stroke-miterlimit: 4; fill: rgb(255,255,255); fill-rule: nonzero; opacity: 0.48;" vector-effect="non-scaling-stroke"  x="-14.61" y="-11.605" rx="6.86" ry="6.86" width="29.22" height="23.21" />
</g>
<g transform="matrix(2.12 0 0 2.12 572.28 1009.9)" clip-path="url(#CLIPPATH_56)"  >
<clipPath id="CLIPPATH_56" >
	<rect transform="matrix(1 0 0 1 -0.12 -164.78)" id="clippy" clip-path="url(#undefined)" x="-26.19" y="-40.92" rx="0" ry="0" width="52.38" height="81.84" />
</clipPath>
<rect style="stroke: none; stroke-width: 1; stroke-dasharray: none; stroke-linecap: butt; stroke-dashoffset: 0; stroke-linejoin: miter; stroke-miterlimit: 4; fill: rgb(208,182,209); fill-rule: nonzero; opacity: 1;" vector-effect="non-scaling-stroke"  x="-19.91" y="-20.23" rx="3.34" ry="3.34" width="39.82" height="40.46" />
</g>
<g transform="matrix(2.12 0 0 2.12 569.18 1039.04)" clip-path="url(#CLIPPATH_57)"  >
<clipPath id="CLIPPATH_57" >
	<rect transform="matrix(1 0 0 1 1.34 -178.54)" id="clippy" clip-path="url(#undefined)" x="-26.19" y="-40.92" rx="0" ry="0" width="52.38" height="81.84" />
</clipPath>
<line style="stroke: rgb(255,255,255); stroke-width: 1.2; stroke-dasharray: none; stroke-linecap: round; stroke-dashoffset: 0; stroke-linejoin: miter; stroke-miterlimit: 10; fill: none; fill-rule: nonzero; opacity: 0.81;" vector-effect="non-scaling-stroke"  x1="-11.795000000000002" y1="0" x2="11.795000000000002" y2="0" />
</g>
<g transform="matrix(2.12 0 0 2.12 573.62 1029.82)" clip-path="url(#CLIPPATH_58)"  >
<clipPath id="CLIPPATH_58" >
	<rect transform="matrix(1 0 0 1 -0.75 -174.19)" id="clippy" clip-path="url(#undefined)" x="-26.19" y="-40.92" rx="0" ry="0" width="52.38" height="81.84" />
</clipPath>
<line style="stroke: rgb(255,255,255); stroke-width: 1.2; stroke-dasharray: none; stroke-linecap: round; stroke-dashoffset: 0; stroke-linejoin: miter; stroke-miterlimit: 10; fill: none; fill-rule: nonzero; opacity: 0.81;" vector-effect="non-scaling-stroke"  x1="-13.89" y1="0" x2="13.89" y2="0" />
</g>
<g transform="matrix(2.12 0 0 2.12 569.18 1020.63)" clip-path="url(#CLIPPATH_59)"  >
<clipPath id="CLIPPATH_59" >
	<rect transform="matrix(1 0 0 1 1.34 -169.85)" id="clippy" clip-path="url(#undefined)" x="-26.19" y="-40.92" rx="0" ry="0" width="52.38" height="81.84" />
</clipPath>
<line style="stroke: rgb(255,255,255); stroke-width: 1.2; stroke-dasharray: none; stroke-linecap: round; stroke-dashoffset: 0; stroke-linejoin: miter; stroke-miterlimit: 10; fill: none; fill-rule: nonzero; opacity: 0.81;" vector-effect="non-scaling-stroke"  x1="-11.795000000000002" y1="0" x2="11.795000000000002" y2="0" />
</g>
<g transform="matrix(2.12 0 0 2.12 557.12 1010.43)" clip-path="url(#CLIPPATH_60)"  >
<clipPath id="CLIPPATH_60" >
	<rect transform="matrix(1 0 0 1 7.03 -165.04)" id="clippy" clip-path="url(#undefined)" x="-26.19" y="-40.92" rx="0" ry="0" width="52.38" height="81.84" />
</clipPath>
<line style="stroke: rgb(255,255,255); stroke-width: 1.2; stroke-dasharray: none; stroke-linecap: round; stroke-dashoffset: 0; stroke-linejoin: miter; stroke-miterlimit: 10; fill: none; fill-rule: nonzero; opacity: 0.81;" vector-effect="non-scaling-stroke"  x1="-6.109999999999999" y1="0" x2="6.109999999999999" y2="0" />
</g>
<g transform="matrix(2.12 0 0 2.12 563.12 1002.4)" clip-path="url(#CLIPPATH_61)"  >
<clipPath id="CLIPPATH_61" >
	<rect transform="matrix(1 0 0 1 4.2 -161.25)" id="clippy" clip-path="url(#undefined)" x="-26.19" y="-40.92" rx="0" ry="0" width="52.38" height="81.84" />
</clipPath>
<line style="stroke: rgb(255,255,255); stroke-width: 1.2; stroke-dasharray: none; stroke-linecap: round; stroke-dashoffset: 0; stroke-linejoin: miter; stroke-miterlimit: 10; fill: none; fill-rule: nonzero; opacity: 0.81;" vector-effect="non-scaling-stroke"  x1="-8.939999999999998" y1="0" x2="8.939999999999998" y2="0" />
</g>
<g transform="matrix(2.12 0 0 2.12 569.18 993.97)" clip-path="url(#CLIPPATH_62)"  >
<clipPath id="CLIPPATH_62" >
	<rect transform="matrix(1 0 0 1 1.34 -157.27)" id="clippy" clip-path="url(#undefined)" x="-26.19" y="-40.92" rx="0" ry="0" width="52.38" height="81.84" />
</clipPath>
<line style="stroke: rgb(255,255,255); stroke-width: 1.2; stroke-dasharray: none; stroke-linecap: round; stroke-dashoffset: 0; stroke-linejoin: miter; stroke-miterlimit: 10; fill: none; fill-rule: nonzero; opacity: 0.81;" vector-effect="non-scaling-stroke"  x1="-11.795000000000002" y1="0" x2="11.795000000000002" y2="0" />
</g>
<g transform="matrix(2.12 0 0 2.12 573.62 984.75)" clip-path="url(#CLIPPATH_63)"  >
<clipPath id="CLIPPATH_63" >
	<rect transform="matrix(1 0 0 1 -0.75 -152.92)" id="clippy" clip-path="url(#undefined)" x="-26.19" y="-40.92" rx="0" ry="0" width="52.38" height="81.84" />
</clipPath>
<line style="stroke: rgb(255,255,255); stroke-width: 1.2; stroke-dasharray: none; stroke-linecap: round; stroke-dashoffset: 0; stroke-linejoin: miter; stroke-miterlimit: 10; fill: none; fill-rule: nonzero; opacity: 0.81;" vector-effect="non-scaling-stroke"  x1="-13.89" y1="0" x2="13.89" y2="0" />
</g>
<g transform="matrix(2.12 0 0 2.12 569.18 975.55)" clip-path="url(#CLIPPATH_64)"  >
<clipPath id="CLIPPATH_64" >
	<rect transform="matrix(1 0 0 1 1.34 -148.58)" id="clippy" clip-path="url(#undefined)" x="-26.19" y="-40.92" rx="0" ry="0" width="52.38" height="81.84" />
</clipPath>
<line style="stroke: rgb(255,255,255); stroke-width: 1.2; stroke-dasharray: none; stroke-linecap: round; stroke-dashoffset: 0; stroke-linejoin: miter; stroke-miterlimit: 10; fill: none; fill-rule: nonzero; opacity: 0.81;" vector-effect="non-scaling-stroke"  x1="-11.795000000000002" y1="0" x2="11.795000000000002" y2="0" />
</g>
<g transform="matrix(2.12 0 0 2.12 572.03 569.48)"  >
<rect style="stroke: none; stroke-width: 1; stroke-dasharray: none; stroke-linecap: butt; stroke-dashoffset: 0; stroke-linejoin: miter; stroke-miterlimit: 4; fill: rgb(221,221,221); fill-rule: nonzero; opacity: 1;" vector-effect="non-scaling-stroke"  x="-26.19" y="-2.125" rx="0" ry="0" width="52.38" height="4.25" />
</g>
<g transform="matrix(2.12 0 0 2.12 522.72 569.49)"  >
<ellipse style="stroke: none; stroke-width: 1; stroke-dasharray: none; stroke-linecap: butt; stroke-dashoffset: 0; stroke-linejoin: miter; stroke-miterlimit: 4; fill: rgb(175,175,175); fill-rule: nonzero; opacity: 1;" vector-effect="non-scaling-stroke"  cx="0" cy="0" rx="0.93" ry="0.92" />
</g>
<g transform="matrix(2.12 0 0 2.12 530.07 569.49)"  >
<ellipse style="stroke: none; stroke-width: 1; stroke-dasharray: none; stroke-linecap: butt; stroke-dashoffset: 0; stroke-linejoin: miter; stroke-miterlimit: 4; fill: rgb(234,234,234); fill-rule: nonzero; opacity: 1;" vector-effect="non-scaling-stroke"  cx="0" cy="0" rx="0.93" ry="0.92" />
</g>
<g transform="matrix(2.12 0 0 2.12 537.09 569.49)"  >
<ellipse style="stroke: none; stroke-width: 1; stroke-dasharray: none; stroke-linecap: butt; stroke-dashoffset: 0; stroke-linejoin: miter; stroke-miterlimit: 4; fill: rgb(175,175,175); fill-rule: nonzero; opacity: 1;" vector-effect="non-scaling-stroke"  cx="0" cy="0" rx="0.93" ry="0.92" />
</g>
<g transform="matrix(2.12 0 0 2.12 571.92 750.45)"  >
<rect style="stroke: none; stroke-width: 1; stroke-dasharray: none; stroke-linecap: butt; stroke-dashoffset: 0; stroke-linejoin: miter; stroke-miterlimit: 4; fill: rgb(234,234,234); fill-rule: nonzero; opacity: 1;" vector-effect="non-scaling-stroke"  x="-26.235" y="-1.425" rx="0" ry="0" width="52.47" height="2.85" />
</g>
<g transform="matrix(2.12 0 0 2.12 623.44 660.73)"  >
<rect style="stroke: none; stroke-width: 1; stroke-dasharray: none; stroke-linecap: butt; stroke-dashoffset: 0; stroke-linejoin: miter; stroke-miterlimit: 4; fill: rgb(255,255,255); fill-rule: nonzero; opacity: 1;" vector-effect="non-scaling-stroke"  x="-1.92" y="-40.92" rx="0" ry="0" width="3.84" height="81.84" />
</g>
<g transform="matrix(2.12 0 0 2.12 623.44 600.85)" id="scrollbar"  >
<rect style="stroke: none; stroke-width: 1; stroke-dasharray: none; stroke-linecap: butt; stroke-dashoffset: 0; stroke-linejoin: miter; stroke-miterlimit: 4; fill: rgb(221,221,221); fill-rule: nonzero; opacity: 1;" vector-effect="non-scaling-stroke"  x="-1.2" y="-11.105" rx="1.02" ry="1.02" width="2.4" height="22.21" />
</g>
<g transform="matrix(1.68 1.3 -1.3 1.68 458.29 393.72)"  >
<polyline style="stroke: rgb(249,228,172); stroke-width: 1; stroke-dasharray: none; stroke-linecap: butt; stroke-dashoffset: 0; stroke-linejoin: miter; stroke-miterlimit: 10; fill: none; fill-rule: nonzero; opacity: 1;" vector-effect="non-scaling-stroke"  points="-11.26,6.13 -6.35,7.8 -5.63,2.66 -0.72,4.31 -0.01,-0.82 4.91,0.84 5.63,-4.31 10.55,-2.65 11.27,-7.79 " />
</g>
<g transform="matrix(-1.85 -1.04 1.04 -1.85 606.78 337.27)"  >
<path style="stroke: rgb(252,235,182); stroke-width: 2; stroke-dasharray: none; stroke-linecap: round; stroke-dashoffset: 0; stroke-linejoin: round; stroke-miterlimit: 4; fill: none; fill-rule: nonzero; opacity: 1;" vector-effect="non-scaling-stroke"  transform=" translate(-219.32, -295.76)" d="M 219.32 286.24 C 219.32265399163097 288.7586366591199 218.3239893327334 291.1750251151021 216.54398136339125 292.9569087514298 C 214.76397339404912 294.73879238775754 212.34863805742947 295.74000139831 209.82999999999998 295.74 M 219.32 286.24 C 219.31734600836901 288.7586366591199 220.3160106672666 291.1750251151021 222.09601863660873 292.9569087514298 C 223.87602660595087 294.73879238775754 226.29136194257052 295.74000139831 228.81 295.74 M 219.32 305.29 C 219.32 302.77309551142275 218.32016358493217 300.35927687801154 216.54044335346032 298.5795566465397 C 214.76072312198846 296.79983641506783 212.34690448857725 295.8 209.82999999999998 295.8 M 219.32 305.29 C 219.32 302.77309551142275 220.3198364150678 300.35927687801154 222.09955664653967 298.5795566465397 C 223.8792768780115 296.79983641506783 226.29309551142273 295.8 228.81 295.8" stroke-linecap="round" />
</g>
<g transform="matrix(0.89 -1.92 1.92 0.89 867.74 368.42)"  >
<polygon style="stroke: rgb(163,178,229); stroke-width: 1; stroke-dasharray: none; stroke-linecap: butt; stroke-dashoffset: 0; stroke-linejoin: miter; stroke-miterlimit: 10; fill: none; fill-rule: nonzero; opacity: 1;" vector-effect="non-scaling-stroke"  points="-5.13,6.62 5.93,-0.68 -5.93,-6.61 -5.13,6.62 " />
</g>
</svg>